<svg width="40" height="44" viewBox="0 0 40 44" fill="none" xmlns="http://www.w3.org/2000/svg">
<rect x="5.09766" y="12.2683" width="23.561" height="23.561" rx="11.7805" fill="#BDF3FF"/>
<path d="M2.59494 4.4557C1.53165 4.66835 1.08861 5.07595 1 5.25316C2.86076 5.51899 3.12658 5.78481 2.06329 7.91139C1.21266 9.61266 1.53165 10.5696 1.79747 10.8354C2.59494 11.6329 3.48101 11.3671 3.92405 10.8354L4.18987 21.7342C4.40253 23.8608 4.98734 25.2785 5.25317 25.7215C6.95443 27.8481 12.1646 31.2152 14.557 32.6329C16.2582 33.6962 17.5696 36.6203 18.0127 37.9494C17.8 39.6506 17.038 40.4304 16.6835 40.6076C13.281 40.3949 11.5443 41.2278 11.1013 41.6709C13.0152 41.0329 14.3797 41.4051 14.8228 41.6709C11.5254 41.6709 10.6134 42.557 10.5696 43C10.9949 42.1494 15.8861 42.2911 18.2785 42.4684C19.1291 42.4684 18.9873 41.4051 18.8101 40.8734C19.8734 41.2987 20.3165 41.0506 20.4051 40.8734C19.1291 40.4481 19.519 38.038 19.8734 36.8861C22 35.1848 22.5316 32.4557 22.5316 31.3038C28.0608 28.3266 27.8481 22.2658 27.0506 19.6076C28.7519 20.6709 29 24.1266 28.9114 25.7215C34.2279 23.5949 32.8987 18.4557 31.5696 16.1519C34.3342 16.3646 35.557 19.6076 35.8228 21.2025C37.9494 18.2253 36.3544 14.2911 35.2911 12.6962C37.2051 13.1215 38.9241 15.8861 39.5443 17.2152C39.9696 11.6861 35.2911 8.88608 32.8987 8.17721C24.8177 6.47595 22.0886 13.6709 21.7342 17.481C20.8835 16.843 16.5949 16.6835 14.557 16.6835C11.8987 15.8861 11.3671 12.4304 11.1013 10.8354C10.8886 9.55949 8.88608 6.75949 7.91139 5.51899C9.82532 5.30633 11.1899 3.48101 11.6329 2.59494C10.7823 3.02025 8.97469 2.94937 8.17722 2.86076C7.7519 2.6481 9.64557 1.85443 10 1.5C9.36203 1.28734 8 1.5 8 1.5C6 2 5.43038 2.32911 4.98734 2.32911C4.56203 2.32911 5.51899 1.44304 6.05063 1C1.58481 1.85063 1.88608 3.65823 2.59494 4.4557Z" stroke="black" stroke-width="0.8"/>
<path d="M10.5665 19.8738C10.4778 22.8864 12.3209 28.4864 20.4019 26.7852C20.1865 26.3599 18.5401 25.7219 17.7438 25.4561C18.6298 25.5447 20.4019 25.9345 20.4019 26.7852C21.4652 26.608 23.8045 25.8282 24.6552 24.1269C23.9463 23.9497 22.2628 23.6485 21.1995 23.8611C21.7311 23.5067 22.7413 22.5852 22.5286 21.7345C21.5539 21.8231 19.4982 22.0535 19.0729 22.2662C19.2501 21.7345 19.5514 20.6181 19.3387 20.4054C18.8071 20.494 17.6375 20.8307 17.2121 21.4687C16.9994 20.8307 18.7185 20.3168 19.6046 20.1396C19.8154 20.3503 19.6955 21.2742 19.6071 21.7221C19.6883 21.5198 21.7522 21.4687 22.7945 21.4687C23.0072 22.1067 22.3515 23.1523 21.997 23.5953C22.2097 23.434 24.2122 23.7053 25.1869 23.8611C22.8477 27.9016 17.2122 27.8485 15.0856 27.3168C12.1648 26.7852 10.2121 22.1776 10.3007 20.1396L10.5665 19.8738Z" fill="black"/>
<path d="M16.4147 23.0637C17.0349 23.0637 18.3286 23.3295 18.5413 24.3928C17.9006 23.5421 16.8566 23.1523 16.4147 23.0637Z" fill="black"/>
<path d="M20.4019 26.7852C12.3209 28.4864 10.4778 22.8864 10.5665 19.8738L10.3007 20.1396C10.2121 22.1776 12.1648 26.7852 15.0856 27.3168C17.2122 27.8485 22.8477 27.9016 25.1869 23.8611C24.2122 23.7053 22.2097 23.434 21.997 23.5953C22.3515 23.1523 23.0072 22.1067 22.7945 21.4687C21.7312 21.4687 19.6046 21.5219 19.6046 21.7345C19.6933 21.2915 19.8173 20.3523 19.6046 20.1396C18.7185 20.3168 16.9994 20.8307 17.2121 21.4687C17.6375 20.8307 18.8071 20.494 19.3387 20.4054C19.5514 20.6181 19.2501 21.7345 19.0729 22.2662C19.4982 22.0535 21.5539 21.8231 22.5286 21.7345C22.7413 22.5852 21.7311 23.5067 21.1995 23.8611C22.2628 23.6485 23.9463 23.9497 24.6552 24.1269C23.8045 25.8282 21.4652 26.608 20.4019 26.7852ZM20.4019 26.7852C20.4019 25.9345 18.6298 25.5447 17.7438 25.4561C18.5401 25.7219 20.1865 26.3599 20.4019 26.7852ZM16.4147 23.0637C17.0349 23.0637 18.3286 23.3295 18.5413 24.3928C17.9006 23.5421 16.8566 23.1523 16.4147 23.0637Z" stroke="black" stroke-width="0.2"/>
<circle cx="4.19083" cy="4.19009" r="0.531646" fill="black"/>
<path fill-rule="evenodd" clip-rule="evenodd" d="M4.69884 4.0111C4.65679 4.10249 4.56442 4.16594 4.45723 4.16594C4.31042 4.16594 4.19141 4.04693 4.19141 3.90012C4.19141 3.79246 4.2554 3.69975 4.34743 3.65796C4.51535 3.70991 4.6477 3.84283 4.69884 4.0111Z" fill="white"/>
<path d="M4.9879 11.899C5.60815 12.4307 6.84866 14.2914 6.84866 17.4813C7.11448 16.0636 7.69929 12.9092 7.91195 11.6332C8.35499 12.6965 9.24106 15.4079 9.24106 17.7471C9.92141 15.9612 11.2058 12.2653 11.12 11.2188C11.1144 11.1796 11.1083 11.1405 11.1018 11.1016C11.1104 11.1358 11.1164 11.175 11.12 11.2188C11.4818 13.7483 10.0264 16.7914 9.24106 18.013L7.91195 12.6965L6.84866 18.013L5.25372 12.6965L4.19043 18.013L4.9879 11.899Z" fill="black"/>
<path d="M4.9879 11.899C5.60815 12.4307 6.84866 14.2914 6.84866 17.4813C7.11448 16.0636 7.69929 12.9092 7.91195 11.6332C8.35499 12.6965 9.24106 15.4079 9.24106 17.7471C9.94992 15.8864 11.3145 11.9522 11.1018 11.1016C11.5271 13.6535 10.0385 16.7724 9.24106 18.013L7.91195 12.6965L6.84866 18.013L5.25372 12.6965L4.19043 18.013L4.9879 11.899Z" stroke="black" stroke-width="0.2" stroke-linecap="round" stroke-linejoin="round"/>
</svg>
