<svg width="47" height="50" viewBox="0 0 47 50" fill="none" xmlns="http://www.w3.org/2000/svg">
<rect x="11" y="16" width="23" height="23" rx="11.5" fill="#BDF3FF"/>
<path d="M16.6499 15.569L19.3393 18.269M14.081 18.269L16.6499 21.0955M16.6499 21.0955L41.4832 48.419C43.1961 49.769 47.0495 47.069 45.3366 44.369L19.3393 18.269M16.6499 21.0955C14.9373 22.0377 10.6537 23.2187 8.51492 21.0955C5.37508 18.0533 -0.0503046 8.81875 3.80517 4.31897C5.05651 2.2862 15.3657 2.24897 20.5036 11.969C21.36 13.589 20.8055 16.0077 19.3393 18.269" stroke="black"/>
<path d="M30.4554 14.95L23.1767 22.15M33.0244 18.1L26.602 25.3M23.6049 28.45L6.47852 47.35C3.48283 50.05 -1.22722 47.35 2.19693 43.3L20.1799 25.3" stroke="black"/>
<path d="M28.2089 16.9187C27.4953 15.7187 26.5819 12.8687 28.637 11.0687L38.4848 1.16874C38.913 0.718755 40.6256 1.16876 39.7693 2.51874L32.0625 11.0687C31.2061 11.9688 32.4906 13.7688 33.7751 12.8687C36.2013 10.3187 41.2251 5.12866 41.9101 4.76866C42.7664 4.31866 44.0509 5.21876 42.7664 6.56876C41.8932 7.48658 37.3431 12.4187 35.4877 14.6687C34.9632 15.3048 35.9159 17.3688 37.2004 16.4687L44.4791 8.36866C44.9072 7.91875 46.6199 8.81875 45.7635 9.71866L36.7722 19.6187C36.0586 20.5186 33.9464 21.7786 31.2061 19.6187" stroke="black"/>
</svg>
