<svg width="36" height="41" viewBox="0 0 36 41" fill="none" xmlns="http://www.w3.org/2000/svg">
<path d="M7 19C7 12.6487 12.1487 7.5 18.5 7.5V7.5C24.8513 7.5 30 12.6487 30 19V19C30 25.3513 24.8513 30.5 18.5 30.5V30.5C12.1487 30.5 7 25.3513 7 19V19Z" fill="#BDF3FF"/>
<path d="M8.39723 20.184C5.93149 20.6406 1 20.0196 1 13.8826C1.09132 11.9648 2.53424 8.29361 7.57532 8.95114C7.94061 6.39409 10.4246 1.22519 17.4383 1.00601C18.9908 0.914689 22.8081 1.82793 25.6574 6.21147C28.3058 5.57223 33.8766 5.88276 34.9725 12.2389C35.4291 14.6132 34.6437 19.5264 27.8492 20.184M14.1506 12.5128L12.5068 14.1567L13.0547 15.5265L12.5068 16.8964H11.1369V19.3621L12.5068 19.6361L13.0547 21.0059L12.5068 22.3758L13.8767 24.0196L15.5205 22.9237L16.8903 24.0196L17.1643 25.3895H19.0821L19.904 23.4717L20.9999 23.1977L22.0958 24.0196L23.7396 22.3758L22.9177 20.732L23.7396 19.3621H24.8355V16.8964H23.4657L22.9177 15.2525L23.7396 13.8827L22.0958 12.5128L20.726 13.3347L19.6301 12.7868L19.3561 11.4169H17.1643L16.3424 12.7868L15.2465 13.3347L14.1506 12.5128Z" stroke="black" stroke-width="1.6" stroke-linejoin="round"/>
<path d="M10.0415 23.4656C10.4981 24.6528 10.1511 27.2464 7.30176 28.1231M14.973 27.3012V37.7121M21.0003 27.3012V31.9587M26.2058 23.4656V28.671C26.2971 29.5843 27.0825 31.2464 29.4935 30.5888" stroke="black" stroke-width="1.5" stroke-linejoin="round"/>
<circle cx="5.65608" cy="28.1234" r="1.4178" stroke="black"/>
<circle cx="30.8621" cy="30.315" r="1.4178" stroke="black"/>
<circle cx="21.0008" cy="33.6024" r="1.4178" stroke="black"/>
<circle cx="14.9725" cy="39.0821" r="1.4178" stroke="black"/>
<circle cx="18.151" cy="18.1508" r="2.8356" stroke="black" stroke-width="2"/>
</svg>
