<svg width="48" height="47" viewBox="0 0 48 47" fill="none" xmlns="http://www.w3.org/2000/svg">
<rect x="12" y="13" width="23" height="23" rx="11.5" fill="#BDF3FF"/>
<path d="M1.98582 21C-0.0141751 23.8 1.48582 26.5 2.48582 27.5L22.9854 8L43.9854 27.5C46.7854 25.5 46.152 23.3333 45.4854 22.5L25.9854 4.49997C23.5854 2.09997 20.652 3.49997 19.4854 4.49997C14.4855 8.8333 3.98583 18.2 1.98582 21Z" stroke="black" stroke-width="2"/>
<path d="M6.98535 28.5L22.9854 13L39.9854 28.5V41C37.1854 45 31.8187 45.3333 29.4854 45V35H17.4854V45C9.48535 45 7.15202 41.6667 6.98535 40V28.5Z" stroke="black" stroke-width="2"/>
<circle cx="8.44139" cy="5.94774" r="2.25858" fill="#BDF3FF" stroke="black" stroke-width="0.6"/>
<path d="M8.36311 1.07064L7.64351 2.90961C7.56349 2.98956 8.74992 2.98956 9.00276 2.98956C9.0815 2.98956 9.24262 2.9629 9.24262 2.9096C9.02941 2.34992 8.58699 1.19856 8.52302 1.07064C8.45906 0.942707 8.38976 1.01733 8.36311 1.07064Z" fill="#D9D9D9" stroke="black" stroke-width="0.6"/>
<path d="M11.8937 2.50319L10.0992 3.32759C9.98612 3.3296 10.8402 4.15308 11.0222 4.32858C11.0789 4.38323 11.2134 4.47588 11.2504 4.4375C11.4854 3.8866 11.966 2.75068 12.0088 2.61418C12.0515 2.47769 11.9498 2.48332 11.8937 2.50319Z" stroke="black" stroke-width="0.6"/>
<path d="M13.4482 5.87466L11.5608 5.29393C11.4751 5.22007 11.5634 6.40321 11.5823 6.65535C11.5881 6.73388 11.6267 6.89257 11.6798 6.8886C12.2221 6.63432 13.3373 6.10744 13.4601 6.03413C13.583 5.96082 13.5034 5.89728 13.4482 5.87466Z" stroke="black" stroke-width="0.6"/>
<path d="M12.0014 9.43601L11.2552 7.60766C11.2581 7.49458 10.3985 8.31235 10.2153 8.48662C10.1582 8.5409 10.0599 8.67126 10.0966 8.70988C10.6369 8.96842 11.751 9.49763 11.8855 9.54623C12.02 9.59483 12.0188 9.493 12.0014 9.43601Z" stroke="black" stroke-width="0.6"/>
<path d="M8.5238 10.9185L9.27147 9.0908C9.35271 9.01209 8.16642 8.99392 7.91361 8.99005C7.83487 8.98884 7.67336 9.01303 7.67255 9.06632C7.87717 9.62921 8.30191 10.7872 8.3639 10.9161C8.4259 11.045 8.49633 10.9714 8.5238 10.9185Z" stroke="black" stroke-width="0.6"/>
<path d="M4.97217 9.54528L6.75866 8.70379C6.87173 8.7007 6.00981 7.88541 5.82612 7.71166C5.76891 7.65755 5.63355 7.56619 5.59692 7.60492C5.36721 8.15804 4.89744 9.2985 4.856 9.4354C4.81456 9.57229 4.91618 9.56569 4.97217 9.54528Z" stroke="black" stroke-width="0.6"/>
<path d="M4.82814 2.64477L5.69358 4.41978C5.69818 4.53281 6.50181 3.66 6.67307 3.47399C6.72641 3.41606 6.81594 3.27948 6.77673 3.24337C6.22057 3.02113 5.07389 2.56673 4.93645 2.52713C4.79901 2.48754 4.80698 2.58906 4.82814 2.64477Z" stroke="black" stroke-width="0.6"/>
<path d="M3.57143 6.06201L5.42291 6.7488C5.50427 6.82739 5.48317 5.64115 5.47867 5.38835C5.47727 5.30961 5.44776 5.14899 5.39446 5.14994C4.83866 5.37307 3.69536 5.8359 3.56859 5.90213C3.44182 5.96836 3.51766 6.03632 3.57143 6.06201Z" stroke="black" stroke-width="0.6"/>
</svg>
