<svg width="46" height="47" viewBox="0 0 46 47" fill="none" xmlns="http://www.w3.org/2000/svg">
<rect x="11" y="11" width="23" height="23" rx="11.5" fill="#BDF3FF"/>
<path d="M9.50879 16.3149V4.16022C9.50879 1.97238 11.3077 1 13.6414 1C15.9751 1 26.9305 1 32.1165 1C34.3044 1 35.7629 1.97238 35.7629 4.16022L36.2491 40.1381C36.2534 40.2145 36.256 40.2957 36.2567 40.3812M9.50879 37.4641V40.3812M9.50879 40.3812V43.2983C9.50879 45.0486 10.4812 45.9724 13.6414 45.9724H33.0889C36.4922 45.7293 36.2698 41.9273 36.2567 40.3812M9.50879 40.3812H36.2567" stroke="black" stroke-width="2"/>
<path d="M1 23.1216V33.8178M6.34807 26.5249V33.8178M12.6685 18.989V33.8178M19.7182 13.641V33.8178M25.5525 22.6354V33.8178M32.116 19.9614V33.8178M40.1381 26.5249V33.8178M45 22.6354V33.8178M21.4199 43.0553H24.0939M9.50829 6.34814H35.7624" stroke="black" stroke-width="2"/>
</svg>
