<svg width="42" height="45" viewBox="0 0 42 45" fill="none" xmlns="http://www.w3.org/2000/svg">
<rect x="6.09766" y="13.2683" width="23.561" height="23.561" rx="11.7805" fill="#BDF3FF"/>
<path d="M3.59494 5.4557C2.53165 5.66835 2.08861 6.07595 2 6.25316C3.86076 6.51899 4.12658 6.78481 3.06329 8.91139C2.21266 10.6127 2.53165 11.5696 2.79747 11.8354C3.59494 12.6329 4.48101 12.3671 4.92405 11.8354L5.18987 22.7342C5.40253 24.8608 5.98734 26.2785 6.25317 26.7215C7.95443 28.8481 13.1646 32.2152 15.557 33.6329C17.2582 34.6962 18.5696 37.6203 19.0127 38.9494C18.8 40.6506 18.038 41.4304 17.6835 41.6076C14.281 41.3949 12.5443 42.2278 12.1013 42.6709C14.0152 42.0329 15.3797 42.4051 15.8228 42.6709C12.5254 42.6709 11.6134 43.557 11.5696 44C11.9949 43.1494 16.8861 43.2911 19.2785 43.4684C20.1291 43.4684 19.9873 42.4051 19.8101 41.8734C20.8734 42.2987 21.3165 42.0506 21.4051 41.8734C20.1291 41.4481 20.519 39.038 20.8734 37.8861C23 36.1848 23.5316 33.4557 23.5316 32.3038C29.0608 29.3266 28.8481 23.2658 28.0506 20.6076C29.7519 21.6709 30 25.1266 29.9114 26.7215C35.2279 24.5949 33.8987 19.4557 32.5696 17.1519C35.3342 17.3646 36.557 20.6076 36.8228 22.2025C38.9494 19.2253 37.3544 15.2911 36.2911 13.6962C38.2051 14.1215 39.9241 16.8861 40.5443 18.2152C40.9696 12.6861 36.2911 9.88608 33.8987 9.17721C25.8177 7.47595 23.0886 14.6709 22.7342 18.481C21.8835 17.843 17.5949 17.6835 15.557 17.6835C12.8987 16.8861 12.3671 13.4304 12.1013 11.8354C11.8886 10.5595 9.88608 7.75949 8.91139 6.51899C10.8253 6.30633 12.1899 4.48101 12.6329 3.59494C11.7823 4.02025 9.97469 3.94937 9.17722 3.86076C8.7519 3.6481 10.6456 2.85443 11 2.5C10.362 2.28734 9 2.5 9 2.5C7 3 6.43038 3.32911 5.98734 3.32911C5.56203 3.32911 6.51899 2.44304 7.05063 2C2.58481 2.85063 2.88608 4.65823 3.59494 5.4557Z" stroke="black" stroke-width="1.4"/>
<path d="M11.5665 20.8738C11.4778 23.8864 13.3209 29.4864 21.4019 27.7852C21.1865 27.3599 19.5401 26.7219 18.7438 26.4561C19.6298 26.5447 21.4019 26.9345 21.4019 27.7852C22.4652 27.608 24.8045 26.8282 25.6552 25.1269C24.9463 24.9497 23.2628 24.6485 22.1995 24.8611C22.7311 24.5067 23.7413 23.5852 23.5286 22.7345C22.5539 22.8231 20.4982 23.0535 20.0729 23.2662C20.2501 22.7345 20.5514 21.6181 20.3387 21.4054C19.8071 21.494 18.6375 21.8307 18.2121 22.4687C17.9994 21.8307 19.7185 21.3168 20.6046 21.1396C20.8154 21.3503 20.6955 22.2742 20.6071 22.7221C20.6883 22.5198 22.7522 22.4687 23.7945 22.4687C24.0072 23.1067 23.3515 24.1523 22.997 24.5953C23.2097 24.434 25.2122 24.7053 26.1869 24.8611C23.8477 28.9016 18.2122 28.8485 16.0856 28.3168C13.1648 27.7852 11.2121 23.1776 11.3007 21.1396L11.5665 20.8738Z" fill="black"/>
<path d="M17.4147 24.0637C18.0349 24.0637 19.3286 24.3295 19.5413 25.3928C18.9006 24.5421 17.8566 24.1523 17.4147 24.0637Z" fill="black"/>
<path d="M21.4019 27.7852C13.3209 29.4864 11.4778 23.8864 11.5665 20.8738L11.3007 21.1396C11.2121 23.1776 13.1648 27.7852 16.0856 28.3168C18.2122 28.8485 23.8477 28.9016 26.1869 24.8611C25.2122 24.7053 23.2097 24.434 22.997 24.5953C23.3515 24.1523 24.0072 23.1067 23.7945 22.4687C22.7312 22.4687 20.6046 22.5219 20.6046 22.7345C20.6933 22.2915 20.8173 21.3523 20.6046 21.1396C19.7185 21.3168 17.9994 21.8307 18.2121 22.4687C18.6375 21.8307 19.8071 21.494 20.3387 21.4054C20.5514 21.6181 20.2501 22.7345 20.0729 23.2662C20.4982 23.0535 22.5539 22.8231 23.5286 22.7345C23.7413 23.5852 22.7311 24.5067 22.1995 24.8611C23.2628 24.6485 24.9463 24.9497 25.6552 25.1269C24.8045 26.8282 22.4652 27.608 21.4019 27.7852ZM21.4019 27.7852C21.4019 26.9345 19.6298 26.5447 18.7438 26.4561C19.5401 26.7219 21.1865 27.3599 21.4019 27.7852ZM17.4147 24.0637C18.0349 24.0637 19.3286 24.3295 19.5413 25.3928C18.9006 24.5421 17.8566 24.1523 17.4147 24.0637Z" stroke="black"/>
<circle cx="5.19083" cy="5.19009" r="0.531646" fill="black"/>
<path fill-rule="evenodd" clip-rule="evenodd" d="M5.69884 5.0111C5.65679 5.10249 5.56442 5.16594 5.45723 5.16594C5.31042 5.16594 5.19141 5.04693 5.19141 4.90012C5.19141 4.79246 5.2554 4.69975 5.34743 4.65796C5.51535 4.70991 5.6477 4.84283 5.69884 5.0111Z" fill="white"/>
<path d="M5.9879 12.899C6.60815 13.4307 7.84866 15.2914 7.84866 18.4813C8.11448 17.0636 8.69929 13.9092 8.91195 12.6332C9.35499 13.6965 10.2411 16.4079 10.2411 18.7471C10.9214 16.9612 12.2058 13.2653 12.12 12.2188C12.1144 12.1796 12.1083 12.1405 12.1018 12.1016C12.1104 12.1358 12.1164 12.175 12.12 12.2188C12.4818 14.7483 11.0264 17.7914 10.2411 19.013L8.91195 13.6965L7.84866 19.013L6.25372 13.6965L5.19043 19.013L5.9879 12.899Z" fill="black" stroke="black" stroke-width="0.2" stroke-linecap="round" stroke-linejoin="round"/>
</svg>
