<svg width="48" height="50" viewBox="0 0 48 50" fill="none" xmlns="http://www.w3.org/2000/svg">
<rect x="10" y="13" width="27" height="27" rx="13.5" fill="#BDF3FF"/>
<path d="M40.0105 47.1843C41.7234 48.5343 45.5769 45.8343 43.8639 43.1343L30.8653 30.0844L17.8667 17.0344C19.3329 14.7731 19.8874 12.3544 19.031 10.7344C13.8931 1.01435 3.58396 1.05158 2.33261 3.08435C-1.52285 7.58413 3.90253 16.8187 7.04235 19.8609C9.1811 21.9841 13.4647 20.8031 15.1774 19.8609L40.0105 47.1843Z" fill="#BDF3FF"/>
<path d="M15.1774 14.3344L17.8667 17.0344M12.6084 17.0344L15.1774 19.8609M15.1774 19.8609L40.0105 47.1843C41.7234 48.5343 45.5769 45.8343 43.8639 43.1343L30.8653 30.0844L17.8667 17.0344M15.1774 19.8609C13.4647 20.8031 9.1811 21.9841 7.04235 19.8609C3.90253 16.8187 -1.52285 7.58413 2.33261 3.08435C3.58396 1.05158 13.8931 1.01435 19.031 10.7344C19.8874 12.3544 19.3329 14.7731 17.8667 17.0344" stroke="black" stroke-width="1.5"/>
<path d="M21.1799 25.2999L29.3412 17.0795C28.6276 15.8795 27.5819 12.8687 29.637 11.0687L39.4848 1.16874C39.913 0.718755 41.6256 1.16876 40.7693 2.51874L33.0625 11.0687C32.2061 11.9688 33.4906 13.7688 34.7751 12.8687C37.2013 10.3187 42.2251 5.12866 42.9101 4.76866C43.7664 4.31866 45.0509 5.21876 43.7664 6.56876C42.8932 7.48658 38.3431 12.4187 36.4877 14.6687C35.9632 15.3048 36.9159 17.3688 38.2004 16.4687L45.4791 8.36866C45.9072 7.91875 47.6199 8.81875 46.7635 9.71866L37.7722 19.6187C37.0812 20.4901 35.0788 21.6991 32.4646 19.8138L24.6049 28.45L7.47852 47.3499C4.48283 50.0499 -0.227215 47.3499 3.19693 43.2999L21.1799 25.2999Z" fill="#E6FFE2"/>
<path d="M31.4554 14.95L21.1799 25.2999L3.19693 43.2999C-0.227215 47.3499 4.48283 50.0499 7.47852 47.3499L24.6049 28.45L34.0244 18.1M29.3412 17.0795C28.6276 15.8795 27.5819 12.8687 29.637 11.0687L39.4848 1.16874C39.913 0.718755 41.6256 1.16876 40.7693 2.51874L33.0625 11.0687C32.2061 11.9688 33.4906 13.7688 34.7751 12.8687C37.2013 10.3187 42.2251 5.12866 42.9101 4.76866C43.7664 4.31866 45.0509 5.21876 43.7664 6.56876C42.8932 7.48658 38.3431 12.4187 36.4877 14.6687C35.9632 15.3048 36.9159 17.3688 38.2004 16.4687L45.4791 8.36866C45.9072 7.91875 47.6199 8.81875 46.7635 9.71866L37.7722 19.6187C37.0586 20.5186 34.9464 21.7786 32.2061 19.6187" stroke="black" stroke-width="1.5"/>
</svg>
