<svg width="219" height="40" viewBox="0 0 219 40" fill="none" xmlns="http://www.w3.org/2000/svg">
<path d="M13.5586 37.4674L13.7298 37.9796H14.2699H19.4232H19.9667L20.136 37.4631L28.4286 12.1534L37.1117 37.4729L37.2854 37.9796H37.8211H42.8781H43.4182L43.5894 37.4674L54.8593 3.75402L55.1895 2.76624H54.148H49.5726H49.0263L48.8588 3.28624L40.4498 29.3861L31.6932 3.27775L31.5216 2.76624H30.9821H26.5512H26.0051L25.8374 3.28594L17.4164 29.3861L8.67185 3.27804L8.50043 2.76624H7.96068H3H1.95849L2.28869 3.75402L13.5586 37.4674Z" stroke="white" stroke-width="1.5"/>
<path d="M63.4922 38.8437V2.1987H77.7837C80.9945 2.1987 83.7342 2.70475 86.0027 3.71685C88.2712 4.72895 90.0162 6.19475 91.2377 8.11425C92.4592 10.0337 93.0699 12.3197 93.0699 14.9721C93.0699 17.6245 92.4592 19.9104 91.2377 21.8299C90.0162 23.7145 88.2712 25.1629 86.0027 26.175C83.7342 27.1871 80.9945 27.6931 77.7837 27.6931H68.7272V23.2434V38.8437H63.4922ZM87.992 38.8437L79.9333 27.6121L85.0125 26.5738L93.6981 38.8437H87.992ZM68.7272 25.8085V23.2434H77.6267C80.9771 23.2434 83.5073 22.5279 85.2174 21.097C86.9624 19.6312 87.8349 17.5896 87.8349 14.9721C87.8349 12.3546 86.9624 10.3304 85.2174 8.8995C83.5073 7.4686 80.9771 6.75315 77.6267 6.75315H68.7272V25.8085Z" fill="white"/>
<path d="M113.149 39.1578C110.183 39.1578 107.565 38.547 105.297 37.3255C103.063 36.104 101.318 34.4288 100.062 32.2999C98.8404 30.171 98.2297 27.728 98.2297 24.9709C98.2297 22.2138 98.823 19.7708 100.01 17.6419C101.231 15.513 102.889 13.8553 104.983 12.6687C107.112 11.4472 109.502 10.8364 112.155 10.8364C114.842 10.8364 117.215 11.4297 119.274 12.6163C121.333 13.8029 122.939 15.4781 124.091 17.6419C125.277 19.7708 125.87 22.2662 125.87 25.128C125.87 25.3374 125.853 25.5817 125.818 25.8609C125.818 26.1401 125.801 26.4018 125.766 26.6461H102.156V23.034H123.148L121.107 24.2904C121.142 22.5105 120.775 20.9225 120.007 19.5265C119.239 18.1305 118.175 17.0486 116.814 16.2808C115.488 15.4781 113.935 15.0768 112.155 15.0768C110.41 15.0768 108.857 15.4781 107.496 16.2808C106.135 17.0486 105.07 18.148 104.302 19.5789C103.534 20.9749 103.151 22.5803 103.151 24.3951V25.2327C103.151 27.0824 103.569 28.7401 104.407 30.2059C105.279 31.6368 106.484 32.7536 108.019 33.5563C109.555 34.359 111.317 34.7604 113.306 34.7604C114.947 34.7604 116.43 34.4812 117.756 33.9228C119.117 33.3644 120.304 32.5268 121.316 31.41L124.091 34.6557C122.834 36.1215 121.264 37.2383 119.379 38.0061C117.529 38.7739 115.453 39.1578 113.149 39.1578Z" fill="white"/>
<path d="M149.305 38.8437V32.9805L149.044 31.8811V21.8823C149.044 19.7534 148.415 18.1131 147.159 16.9614C145.937 15.7748 144.088 15.1815 141.61 15.1815C139.97 15.1815 138.364 15.4607 136.794 16.0191C135.223 16.5426 133.897 17.258 132.815 18.1654L130.721 14.3962C132.152 13.2445 133.862 12.372 135.851 11.7787C137.876 11.1505 139.987 10.8364 142.186 10.8364C145.99 10.8364 148.921 11.7613 150.98 13.611C153.04 15.4607 154.069 18.2876 154.069 22.0917V38.8437H149.305ZM140.196 39.1578C138.137 39.1578 136.322 38.8088 134.752 38.1108C133.216 37.4128 132.03 36.453 131.192 35.2315C130.355 33.9751 129.936 32.5617 129.936 30.9912C129.936 29.4905 130.285 28.1294 130.983 26.9079C131.716 25.6864 132.885 24.7092 134.49 23.9763C136.131 23.2434 138.329 22.8769 141.086 22.8769H149.881V26.4891H141.296C138.783 26.4891 137.09 26.9079 136.218 27.7455C135.345 28.5831 134.909 29.5952 134.909 30.7818C134.909 32.1429 135.45 33.2422 136.532 34.0798C137.614 34.8825 139.114 35.2839 141.034 35.2839C142.919 35.2839 144.559 34.8651 145.955 34.0275C147.386 33.1899 148.415 31.9684 149.044 30.363L150.038 33.8181C149.375 35.4584 148.206 36.7671 146.531 37.7443C144.856 38.6866 142.744 39.1578 140.196 39.1578Z" fill="white"/>
<path d="M174.834 39.1578C172.147 39.1578 169.739 38.5645 167.61 37.3779C165.516 36.1913 163.858 34.5335 162.637 32.4046C161.415 30.2757 160.804 27.7978 160.804 24.9709C160.804 22.144 161.415 19.6836 162.637 17.5896C163.858 15.4607 165.516 13.8029 167.61 12.6163C169.739 11.4297 172.147 10.8364 174.834 10.8364C177.172 10.8364 179.284 11.3599 181.168 12.4069C183.053 13.4539 184.554 15.0244 185.671 17.1184C186.822 19.2124 187.398 21.8299 187.398 24.9709C187.398 28.1119 186.84 30.7294 185.723 32.8234C184.641 34.9174 183.158 36.5054 181.273 37.5873C179.389 38.6343 177.242 39.1578 174.834 39.1578ZM175.253 34.7604C176.998 34.7604 178.568 34.359 179.964 33.5563C181.395 32.7536 182.512 31.6194 183.315 30.1536C184.152 28.6529 184.571 26.9253 184.571 24.9709C184.571 22.9816 184.152 21.2715 183.315 19.8406C182.512 18.3748 181.395 17.2406 179.964 16.4379C178.568 15.6352 176.998 15.2338 175.253 15.2338C173.473 15.2338 171.885 15.6352 170.489 16.4379C169.093 17.2406 167.976 18.3748 167.139 19.8406C166.301 21.2715 165.882 22.9816 165.882 24.9709C165.882 26.9253 166.301 28.6529 167.139 30.1536C167.976 31.6194 169.093 32.7536 170.489 33.5563C171.885 34.359 173.473 34.7604 175.253 34.7604ZM184.728 38.8437V31.3576L185.042 24.9186L184.519 18.4795V0H189.544V38.8437H184.728Z" fill="white"/>
<path d="M207.01 39.1578C204.707 39.1578 202.508 38.8437 200.414 38.2155C198.355 37.5873 196.732 36.8195 195.546 35.9121L197.64 31.9335C198.826 32.7362 200.292 33.4167 202.037 33.9751C203.782 34.5335 205.562 34.8127 207.377 34.8127C209.715 34.8127 211.39 34.4812 212.403 33.8181C213.45 33.155 213.973 32.2301 213.973 31.0435C213.973 30.171 213.659 29.4905 213.031 29.0019C212.403 28.5133 211.565 28.1468 210.518 27.9025C209.506 27.6582 208.372 27.4488 207.115 27.2743C205.859 27.0649 204.602 26.8206 203.346 26.5414C202.09 26.2273 200.938 25.8085 199.891 25.285C198.844 24.7266 198.006 23.9763 197.378 23.034C196.75 22.0568 196.436 20.7655 196.436 19.1601C196.436 17.4849 196.907 16.0191 197.849 14.7627C198.792 13.5063 200.118 12.5465 201.828 11.8834C203.573 11.1854 205.632 10.8364 208.005 10.8364C209.82 10.8364 211.652 11.0633 213.502 11.517C215.386 11.9358 216.922 12.5465 218.109 13.3492L215.962 17.3278C214.706 16.4902 213.397 15.9144 212.036 15.6003C210.675 15.2862 209.314 15.1291 207.953 15.1291C205.754 15.1291 204.114 15.4956 203.032 16.2285C201.95 16.9265 201.409 17.8339 201.409 18.9507C201.409 19.893 201.723 20.6259 202.351 21.1494C203.014 21.638 203.852 22.0219 204.864 22.3011C205.911 22.5803 207.063 22.8246 208.319 23.034C209.576 23.2085 210.832 23.4528 212.088 23.7669C213.345 24.0461 214.479 24.4474 215.491 24.9709C216.538 25.4944 217.376 26.2273 218.004 27.1696C218.667 28.1119 218.999 29.3683 218.999 30.9388C218.999 32.614 218.51 34.0624 217.533 35.2839C216.556 36.5054 215.177 37.4651 213.397 38.1631C211.617 38.8262 209.488 39.1578 207.01 39.1578Z" fill="white"/>
</svg>
