<svg width="39" height="43" viewBox="0 0 39 43" fill="none" xmlns="http://www.w3.org/2000/svg">
<rect x="5" y="12" width="23" height="23" rx="11.5" fill="#BDF3FF"/>
<path d="M2.55696 4.37342C1.51899 4.58101 1.0865 4.9789 1 5.1519C2.81646 5.41139 3.07595 5.67089 2.03797 7.74684C1.20759 9.4076 1.51899 10.3418 1.77848 10.6013C2.55696 11.3797 3.42194 11.1203 3.85443 10.6013L4.11392 21.2405C4.32152 23.3165 4.89241 24.7004 5.1519 25.1329C6.81266 27.2089 11.8987 30.4958 14.2342 31.8797C15.8949 32.9177 17.1751 35.7722 17.6076 37.0696C17.4 38.7304 16.6561 39.4916 16.3101 39.6646C12.9886 39.457 11.2933 40.27 10.8608 40.7025C12.7291 40.0797 14.0612 40.443 14.4937 40.7025C11.2748 40.7025 10.3846 41.5675 10.3418 42C10.757 41.1696 15.5316 41.308 17.8671 41.481C18.6975 41.481 18.5591 40.443 18.3861 39.9241C19.4241 40.3392 19.8565 40.097 19.943 39.9241C18.6975 39.5089 19.0781 37.1561 19.4241 36.0316C21.5 34.3709 22.019 31.7068 22.019 30.5823C27.4165 27.676 27.2089 21.7595 26.4304 19.1646C28.0911 20.2025 28.3333 23.576 28.2468 25.1329C33.4367 23.057 32.1392 18.0401 30.8418 15.7911C33.5405 15.9987 34.7342 19.1646 34.9937 20.7215C37.0696 17.8152 35.5127 13.9747 34.4747 12.4177C36.343 12.8329 38.0211 15.5316 38.6266 16.8291C39.0418 11.4316 34.4747 8.69831 32.1392 8.00633C24.2506 6.34557 21.5865 13.3692 21.2405 17.0886C20.4101 16.4658 16.2236 16.3101 14.2342 16.3101C11.6392 15.5316 11.1203 12.1582 10.8608 10.6013C10.6532 9.3557 8.69831 6.62236 7.74684 5.41139C9.61519 5.2038 10.9473 3.42194 11.3797 2.55696C10.5494 2.97215 8.78481 2.90295 8.00633 2.81646C7.59114 2.60886 8.17933 1.86498 8.52532 1.51899C7.90253 1.31139 7.57384 1.43249 7.48734 1.51899C6.44937 2.14177 5.32489 2.29747 4.89241 2.29747C4.47722 2.29747 5.41139 1.43249 5.93038 1C1.57089 1.83038 1.86498 3.59494 2.55696 4.37342Z" stroke="black" stroke-width="0.2"/>
<path d="M10.3384 19.4243C10.2519 22.3652 12.051 27.8319 19.9396 26.1712C19.7294 25.756 18.1221 25.1332 17.3448 24.8737C18.2098 24.9602 19.9396 25.3408 19.9396 26.1712C20.9777 25.9982 23.2613 25.237 24.0917 23.5762C23.3997 23.4032 21.7562 23.1091 20.7182 23.3167C21.2372 22.9707 22.2233 22.0712 22.0157 21.2408C21.0642 21.3273 19.0575 21.5522 18.6423 21.7598C18.8153 21.2408 19.1094 20.1509 18.9018 19.9433C18.3828 20.0298 17.241 20.3585 16.8258 20.9813C16.6182 20.3585 18.2963 19.8568 19.1614 19.6838C19.3671 19.8895 19.2501 20.7914 19.1638 21.2286C19.243 21.0311 21.2578 20.9813 22.2753 20.9813C22.4829 21.6041 21.8428 22.6247 21.4968 23.0572C21.7044 22.8997 23.6592 23.1646 24.6107 23.3167C22.3272 27.261 16.8259 27.2091 14.75 26.6901C11.8987 26.1712 9.9925 21.6733 10.079 19.6838L10.3384 19.4243Z" fill="black"/>
<path d="M16.0474 22.5382C16.6528 22.5382 17.9157 22.7977 18.1233 23.8357C17.4979 23.0053 16.4788 22.6247 16.0474 22.5382Z" fill="black"/>
<path d="M19.9396 26.1712C12.051 27.8319 10.2519 22.3652 10.3384 19.4243L10.079 19.6838C9.9925 21.6733 11.8987 26.1712 14.75 26.6901C16.8259 27.2091 22.3272 27.261 24.6107 23.3167C23.6592 23.1646 21.7044 22.8997 21.4968 23.0572C21.8428 22.6247 22.4829 21.6041 22.2753 20.9813C21.2373 20.9813 19.1614 21.0332 19.1614 21.2408C19.2479 20.8083 19.369 19.8914 19.1614 19.6838C18.2963 19.8568 16.6182 20.3585 16.8258 20.9813C17.241 20.3585 18.3828 20.0298 18.9018 19.9433C19.1094 20.1509 18.8153 21.2408 18.6423 21.7598C19.0575 21.5522 21.0642 21.3273 22.0157 21.2408C22.2233 22.0712 21.2372 22.9707 20.7182 23.3167C21.7562 23.1091 23.3997 23.4032 24.0917 23.5762C23.2613 25.237 20.9777 25.9982 19.9396 26.1712ZM19.9396 26.1712C19.9396 25.3408 18.2098 24.9602 17.3448 24.8737C18.1221 25.1332 19.7294 25.756 19.9396 26.1712ZM16.0474 22.5382C16.6528 22.5382 17.9157 22.7977 18.1233 23.8357C17.4979 23.0053 16.4788 22.6247 16.0474 22.5382Z" stroke="black" stroke-width="0.2"/>
<circle cx="4.11469" cy="4.11396" r="0.518987" fill="black"/>
<path fill-rule="evenodd" clip-rule="evenodd" d="M4.61063 3.93963C4.5696 4.02889 4.4794 4.09087 4.37473 4.09087C4.23141 4.09087 4.11523 3.97469 4.11523 3.83138C4.11523 3.72627 4.17772 3.63576 4.26757 3.59497C4.43148 3.64567 4.56068 3.77539 4.61063 3.93963Z" fill="white"/>
<path d="M4.89274 11.6396C5.49822 12.1586 6.70919 13.975 6.70919 17.0889C6.96869 15.705 7.53957 12.6256 7.74717 11.3801C8.17966 12.418 9.04464 15.0649 9.04464 17.3484C9.70879 15.605 10.9626 11.9971 10.8788 10.9756C10.8733 10.9373 10.8674 10.8991 10.8611 10.8611C10.8694 10.8945 10.8753 10.9327 10.8788 10.9756C11.2321 13.4448 9.81123 16.4154 9.04464 17.6079L7.74717 12.418L6.70919 17.6079L5.15223 12.418L4.11426 17.6079L4.89274 11.6396Z" fill="black"/>
<path d="M4.89274 11.6396C5.49822 12.1586 6.70919 13.975 6.70919 17.0889C6.96869 15.705 7.53957 12.6256 7.74717 11.3801C8.17966 12.418 9.04464 15.0649 9.04464 17.3484C9.73662 15.532 11.0687 11.6915 10.8611 10.8611C11.2763 13.3522 9.82312 16.3969 9.04464 17.6079L7.74717 12.418L6.70919 17.6079L5.15223 12.418L4.11426 17.6079L4.89274 11.6396Z" stroke="black" stroke-width="0.2" stroke-linecap="round" stroke-linejoin="round"/>
</svg>
