<svg width="41" height="54" viewBox="0 0 41 54" fill="none" xmlns="http://www.w3.org/2000/svg">
<path d="M21.0984 24.8552C21.0984 24.4686 20.785 24.1552 20.3984 24.1552C20.0118 24.1552 19.6984 24.4686 19.6984 24.8552H21.0984ZM21.0984 27.3552V24.8552H19.6984V27.3552H21.0984Z" fill="black"/>
<path d="M25.9035 31.853C25.5035 33.453 23.9032 33.3552 23.4035 32.353C22.2819 29.245 20.9032 29.3552 19.4032 29.8529C16.9032 30.8552 17.4032 33.3552 18.9032 33.8529C25.9032 35.3552 26.4032 38.3552 26.4032 39.8529C25.9032 44.3552 23.737 44.8552 20.9037 44.8552C18.1037 44.8552 15.3984 43.3552 14.4037 41.3552C13.6037 38.1552 16.3984 37.8552 16.9035 39.3529C18.4032 44.3552 22.9037 42.8552 23.4035 41.3529C24.4037 38.3552 21.2368 37.5196 19.4035 37.3529C15.4037 36.8552 14.0701 32.6863 14.4035 31.353C15.6035 26.553 21.1074 27.3184 21.4035 27.353C25.4032 27.8529 26.2368 30.6863 25.9035 31.853Z" fill="#00FF29" stroke="black" stroke-width="0.5" stroke-linejoin="round"/>
<path d="M1.3987 45.8552C-1.4013 35.4552 11.232 23.1886 17.8987 18.3552L15.8984 22.8552L19.3984 18.3552H20.8984L23.3984 22.8552L22.3984 18.3552C39.5984 29.9552 39.9632 39.9666 38.8984 46.3552C37.8984 52.3552 27.8984 53.0219 22.8984 52.8552C8.89844 53.2552 6.5 52.5 3.89844 49.8552C2.70836 48.6454 1.57365 46.505 1.3987 45.8552Z" stroke="black" stroke-width="2" stroke-linejoin="round"/>
<path d="M16.5473 9.3554L15.0473 2.8554C18.2477 -0.344599 24.0469 1.35524 27.5469 2.3554L25.5469 7.8554L27.5469 5.3554C28.5469 4.35536 30.5469 7.35522 30.0469 8.3554L24.5469 15.3554L22.5469 14.8554L24.0469 11.3554L21.5469 14.8554C18.3469 14.0554 16.8802 14.8554 16.5469 15.3554L11.0473 8.3554C10.6473 7.1554 12.8807 5.52207 14.0473 4.8554L16.5473 9.3554Z" stroke="black" stroke-width="2" stroke-linejoin="round"/>
<path d="M19.6984 47.8552C19.6984 48.2418 20.0118 48.5552 20.3984 48.5552C20.785 48.5552 21.0984 48.2418 21.0984 47.8552H19.6984ZM19.6984 44.8552V47.8552H21.0984V44.8552H19.6984Z" fill="black"/>
<path d="M20.3984 29.8752V34.2287V29.6287" stroke="black" stroke-width="1.4"/>
<path d="M20.3984 37.3552V42.7552" stroke="black" stroke-width="1.4"/>
</svg>
