<svg width="30" height="47" viewBox="0 0 30 47" fill="none" xmlns="http://www.w3.org/2000/svg">
<rect x="4" y="19" width="23" height="23" rx="11.5" fill="#BDF3FF"/>
<path d="M11.9334 24.9439V24.3365M11.9334 23.7291H8.28901C4.64476 23.3241 3.34888 21.2185 3.02493 17.6551C2.62 13.2009 3.83479 7.12699 11.9334 5.9122C15.5778 5.37229 23.5145 5.58826 26.106 10.7713C27.3208 13.4709 28.6976 19.5987 24.4863 22.5142C23.5415 23.0541 21.0039 24.053 18.4124 23.729M11.9334 23.7291L18.4124 23.729M11.9334 23.7291V24.3365M18.4124 23.729V24.3364M18.4124 24.9439V24.3364M11.9334 24.3365L18.4124 24.3364" stroke="black" stroke-width="1.5" stroke-linejoin="round"/>
<path d="M8.69336 28.9929C8.69336 27.5082 9.09829 25.3485 11.9328 24.9436H19.2215C20.4363 24.9436 21.6511 26.6443 21.6511 28.588" stroke="black" stroke-linejoin="round"/>
<path d="M27.7253 28.9929H3.02465C1.40493 28.9929 1 30.3427 1 31.0176L1.80986 43.1654C1.80986 44.7852 2.21479 45.9999 3.8345 45.9999H26.1056C28.0493 45.676 28.5352 43.9753 28.5352 43.1654L29.345 32.2324C29.345 29.8028 28.5352 28.9929 27.7253 28.9929Z" stroke="black" stroke-linejoin="round"/>
<circle cx="15.5773" cy="37.4965" r="2.73943" stroke="black"/>
<path d="M8.93878 17C6.58776 17 6 15.5294 6 14.6471C6 13.4706 7.46939 12.2941 8.57143 12.2941L21.0612 12C23.6327 12 24 14.3529 24 14.3529C24 15.5294 23.2653 17 21.4286 17H8.93878Z" fill="black" stroke="black" stroke-width="1.5" stroke-linejoin="round"/>
<circle cx="11.0246" cy="15.0246" r="1.77465" stroke="#BDF3FF" stroke-width="0.5"/>
<circle cx="19.5045" cy="14.8205" r="0.404929" fill="white"/>
<circle cx="10.6051" cy="14.8048" r="0.404929" fill="white"/>
<circle cx="19.0246" cy="15.0246" r="1.77465" stroke="#BDF3FF" stroke-width="0.5"/>
<path d="M12.3379 20.4895C13.2827 21.4343 15.7393 22.7571 18.0069 20.4895" stroke="black" stroke-width="1.25" stroke-linecap="round" stroke-linejoin="round"/>
<path d="M15.1729 5.10214V3.48242" stroke="black" stroke-width="1.25" stroke-linejoin="round"/>
<circle cx="15.1721" cy="2.02465" r="1.52465" stroke="black"/>
</svg>
