<svg width="166" height="43" viewBox="0 0 166 43" fill="none" xmlns="http://www.w3.org/2000/svg">
<path d="M10.0816 3.83179V10.4497H15.2568V15.7685H10.0816V24.2084C10.0816 27.0108 10.7743 28.2935 12.9178 28.2935C13.6379 28.3024 14.3568 28.2312 15.0612 28.0811L15.1183 33.5633C13.6058 34.0111 12.0331 34.2206 10.4565 34.1842C9.46497 34.2228 8.47564 34.0644 7.54548 33.718C6.61531 33.3717 5.76269 32.8443 5.03671 32.1662C3.70011 30.7446 3.04811 28.5468 3.04811 25.2542V15.7685H0V10.4497H3.04811V5.46584L10.0816 3.83179Z" fill="#3CA1FF"/>
<path d="M22.3553 24.3637C22.5672 27.354 25.5175 28.7756 28.8753 28.7756C31.0368 28.8079 33.1884 28.4765 35.2405 27.7952L36.2104 32.6974C33.5343 33.7202 30.6875 34.2194 27.824 34.168C19.9918 34.1435 15.4849 29.56 15.4849 22.3375C15.4849 16.4467 19.1442 9.92688 27.1394 9.92688C34.6374 9.92688 37.4736 15.7686 37.4736 21.5041C37.4879 22.4639 37.4005 23.4225 37.2128 24.3637H22.3553ZM30.7987 19.4616C30.7987 17.7295 30.0326 14.7637 26.7645 14.7637C23.7245 14.7637 22.4939 17.5497 22.2901 19.4616H30.7987Z" fill="#3CA1FF"/>
<path d="M56.7654 33.0568C54.7079 33.8373 52.5178 34.2064 50.3188 34.1434C42.8452 34.1434 38.0938 29.5517 38.0938 22.2639C38.0938 15.4907 42.723 9.94313 51.3212 9.94313C53.1906 9.93547 55.0479 10.2449 56.8143 10.8582L55.6896 16.2179C54.4165 15.683 53.0433 15.4294 51.6635 15.4744C47.8656 15.4744 45.4206 18.1869 45.4532 22.0106C45.4532 26.2673 48.2976 28.5468 51.7858 28.5468C53.2017 28.5714 54.6086 28.316 55.926 27.7951L56.7654 33.0568Z" fill="#3CA1FF"/>
<path d="M58.3618 0H65.5583V13.244H65.6561C66.3927 12.2388 67.3526 11.4192 68.4597 10.8501C69.6117 10.2381 70.8968 9.92097 72.2005 9.92685C76.789 9.92685 80.3506 13.1132 80.3506 20.107V33.6451H73.1215V20.9403C73.1215 17.8928 72.0702 15.8013 69.4051 15.8013C68.613 15.7946 67.8388 16.0369 67.1912 16.4942C66.5436 16.9514 66.0552 17.6005 65.7946 18.3504C65.6222 18.8575 65.5421 19.3917 65.5583 19.9272V33.6451H58.3618V0Z" fill="#3CA1FF"/>
<path d="M83.6923 18.2442C83.6923 15.1967 83.6027 12.623 83.5049 10.4498H89.7559L90.0901 13.7178H90.1798C91.0486 12.4942 92.2094 11.5083 93.5563 10.8504C94.9031 10.1924 96.393 9.88333 97.8897 9.95137C102.951 9.95137 107.499 14.3633 107.499 21.7655C107.499 30.2217 102.128 34.1843 96.9769 34.1843C94.214 34.1843 92.0054 33.0732 90.9784 31.5453H90.8888V43H83.6923V18.2442ZM90.8888 23.7101C90.8811 24.2178 90.9303 24.7248 91.0355 25.2216C91.2486 26.1818 91.7792 27.0417 92.5411 27.6616C93.303 28.2816 94.2515 28.6252 95.2328 28.6367C98.3379 28.6367 100.196 26.0141 100.196 22.1005C100.196 18.4157 98.5661 15.5643 95.3061 15.5643C94.284 15.5932 93.3021 15.9697 92.5217 16.6318C91.7412 17.294 91.2085 18.2025 91.011 19.2083C90.9027 19.63 90.848 20.0637 90.8481 20.4992L90.8888 23.7101Z" fill="white"/>
<path d="M132.56 21.8145C132.56 30.2871 126.57 34.1598 120.335 34.1598C113.603 34.1598 108.387 29.6988 108.387 22.2149C108.387 14.7309 113.318 9.95951 120.751 9.95951C127.858 9.92683 132.56 14.8126 132.56 21.8145ZM115.836 22.0515C115.836 26.0059 117.466 29.0125 120.563 29.0125C123.375 29.0125 125.144 26.1938 125.144 22.0106C125.144 18.5955 123.831 15.0741 120.571 15.0741C117.14 15.0741 115.836 18.6118 115.836 22.0515Z" fill="white"/>
<path d="M134.622 27.3622C136.517 28.4125 138.628 29.0108 140.791 29.1106C142.959 29.1106 143.888 28.3753 143.888 27.1906C143.888 26.0059 143.155 25.4095 140.49 24.5107C135.681 22.9257 133.872 20.3031 133.896 17.5742C133.896 13.2195 137.564 9.95137 143.31 9.95137C145.555 9.91707 147.781 10.3773 149.83 11.2995L148.575 16.267C147.021 15.4635 145.309 15.017 143.562 14.9597C141.81 14.9597 140.808 15.6624 140.808 16.8307C140.808 17.9991 141.72 18.522 144.557 19.5024C148.941 20.9404 150.775 23.2362 150.775 26.6595C150.775 30.9898 147.409 34.1843 140.775 34.1843C138.185 34.2352 135.62 33.6755 133.285 32.5503L134.622 27.3622Z" fill="white"/>
<path d="M160.825 3.83179V10.4497H166V15.7685H160.825V24.2084C160.825 27.0108 161.518 28.2935 163.661 28.2935C164.381 28.3024 165.1 28.2312 165.804 28.0811L165.861 33.5633C164.349 34.0111 162.776 34.2206 161.2 34.1842C160.208 34.2228 159.219 34.0644 158.289 33.718C157.359 33.3717 156.506 32.8443 155.78 32.1662C154.443 30.7936 153.791 28.5876 153.791 25.295V15.7685H150.719V10.4497H153.791V5.46584L160.825 3.83179Z" fill="white"/>
</svg>
