<svg xmlns="http://www.w3.org/2000/svg" viewBox="0 0 80.23 15.14"><defs><style>.cls-1{fill:#3ca1ff;}.cls-2{fill:#fff;}</style></defs><g id="Layer_2" data-name="Layer 2"><g id="Layer_1-2" data-name="Layer 1"><path class="cls-1" d="M13.37,12.17c-.06-1.72-.13-3.76-.12-5.84h-.06c-.45,1.82-1,3.83-1.58,5.5L9.87,17.35H7.38L5.86,11.88C5.4,10.21,4.93,8.2,4.58,6.33h0c-.07,1.93-.15,4.11-.23,5.88L4,17.58h-3L2,3.43H6.25L7.63,8.16c.45,1.62.89,3.4,1.2,5.05H8.9c.39-1.63.87-3.5,1.35-5.08l1.5-4.7H16l.76,14.15H13.59Z" transform="translate(-1.07 -2.67)"/><path class="cls-1" d="M21.44,4.45A1.58,1.58,0,0,1,19.72,6a1.57,1.57,0,0,1-1.67-1.59,1.58,1.58,0,0,1,1.7-1.6A1.57,1.57,0,0,1,21.44,4.45ZM18.15,17.58V7.3h3.2V17.58Z" transform="translate(-1.07 -2.67)"/><path class="cls-1" d="M22.86,10.58c0-1.28,0-2.36-.09-3.28h2.78l.14,1.42h.07a3.73,3.73,0,0,1,3.18-1.65c2.1,0,3.69,1.4,3.69,4.42v6.09H29.42v-5.7c0-1.32-.47-2.23-1.63-2.23a1.73,1.73,0,0,0-1.62,1.21,2.32,2.32,0,0,0-.11.79v5.93h-3.2Z" transform="translate(-1.07 -2.67)"/><path class="cls-1" d="M44.09,2.67V14.51c0,1.16,0,2.38.09,3.07H41.33l-.13-1.51h-.05a3.58,3.58,0,0,1-3.22,1.74c-2.42,0-4.39-2.08-4.39-5.28,0-3.45,2.16-5.46,4.61-5.46a3.11,3.11,0,0,1,2.7,1.16h0V2.67Zm-3.2,9a2.88,2.88,0,0,0,0-.58A1.9,1.9,0,0,0,39,9.52c-1.47,0-2.21,1.3-2.21,2.92s.85,2.82,2.19,2.82a1.9,1.9,0,0,0,1.85-1.53,3.33,3.33,0,0,0,.06-.72Z" transform="translate(-1.07 -2.67)"/><path class="cls-2" d="M45.73,3.61a27.1,27.1,0,0,1,4.32-.29,6.83,6.83,0,0,1,4.34,1.14,4.1,4.1,0,0,1,1.5,3.27,4.46,4.46,0,0,1-1.29,3.35A6.62,6.62,0,0,1,50,12.58a8.19,8.19,0,0,1-1.09-.07v5.07H45.73ZM48.9,10a4.9,4.9,0,0,0,1.06.09c1.71,0,2.76-.86,2.76-2.3s-.9-2.07-2.51-2.07a6.82,6.82,0,0,0-1.31.1Z" transform="translate(-1.07 -2.67)"/><path class="cls-2" d="M66.42,12.34A5.15,5.15,0,0,1,61,17.81a5,5,0,0,1-5.31-5.3,5.14,5.14,0,0,1,5.49-5.44A5,5,0,0,1,66.42,12.34Zm-7.44.1c0,1.76.75,3.09,2.11,3.09s2-1.25,2-3.11c0-1.51-.59-3.07-2-3.07S59,10.92,59,12.44Z" transform="translate(-1.07 -2.67)"/><path class="cls-2" d="M67.34,14.79a6.18,6.18,0,0,0,2.74.77c1,0,1.38-.33,1.38-.85s-.32-.79-1.51-1.19c-2.14-.7-2.94-1.86-2.93-3.07,0-1.93,1.63-3.38,4.19-3.38a6.74,6.74,0,0,1,2.89.6l-.55,2.2a5.32,5.32,0,0,0-2.23-.58c-.78,0-1.23.31-1.23.83s.41.75,1.67,1.18c1.95.66,2.77,1.67,2.78,3.17,0,1.91-1.5,3.33-4.45,3.33a7.37,7.37,0,0,1-3.33-.73Z" transform="translate(-1.07 -2.67)"/><path class="cls-2" d="M79,4.37V7.3h2.3V9.66H79v3.72c0,1.24.31,1.81,1.26,1.81a4.4,4.4,0,0,0,.95-.09l0,2.42a6.69,6.69,0,0,1-2.07.28,3.38,3.38,0,0,1-2.42-.89,4.24,4.24,0,0,1-.88-3.05V9.66H74.5V7.3h1.37V5.09Z" transform="translate(-1.07 -2.67)"/></g></g></svg>