<svg width="438" height="114" viewBox="0 0 438 114" fill="none" xmlns="http://www.w3.org/2000/svg">
<path d="M26.6008 10.0852V27.5037H40.256V41.5029H26.6008V63.7168C26.6008 71.0928 28.4286 74.469 34.0843 74.469C35.9844 74.4925 37.8812 74.305 39.7399 73.9099L39.8904 88.3392C35.8997 89.5178 31.75 90.0692 27.59 89.9736C24.9738 90.0751 22.3634 89.6581 19.9091 88.7465C17.4549 87.8349 15.2052 86.4468 13.2896 84.662C9.76294 80.9203 8.0426 75.1356 8.0426 66.4694V41.5029H0V27.5037H8.0426V14.3861L26.6008 10.0852Z" fill="#5454FF"/>
<path d="M58.986 64.126C59.5451 71.9965 67.3297 75.7383 76.1894 75.7383C81.8926 75.8232 87.5696 74.9509 92.9843 73.1578L95.5433 86.0603C88.4824 88.7525 80.9709 90.0665 73.4154 89.9311C52.7498 89.8666 40.8579 77.8027 40.8579 58.7929C40.8579 43.2883 50.5133 26.1279 71.609 26.1279C91.3929 26.1279 98.8764 41.5035 98.8764 56.5995C98.9142 59.1256 98.6835 61.6486 98.1883 64.126H58.986ZM81.2644 51.2234C81.2644 46.6645 79.243 38.8585 70.6198 38.8585C62.5987 38.8585 59.3516 46.1914 58.814 51.2234H81.2644Z" fill="#5454FF"/>
<path d="M149.778 87.0062C144.35 89.0606 138.571 90.0322 132.769 89.8663C113.049 89.8663 100.512 77.7809 100.512 58.5991C100.512 40.772 112.727 26.1707 135.414 26.1707C140.346 26.1505 145.247 26.9648 149.908 28.5791L146.94 42.6859C143.581 41.2781 139.957 40.6107 136.317 40.729C126.296 40.729 119.845 47.8685 119.931 57.9325C119.931 69.1362 127.436 75.1359 136.639 75.1359C140.375 75.2007 144.088 74.5285 147.564 73.1575L149.778 87.0062Z" fill="#5454FF"/>
<path d="M153.991 0H172.979V34.8584H173.238C175.181 32.2128 177.714 30.0556 180.635 28.5577C183.675 26.9469 187.065 26.1122 190.505 26.1277C202.612 26.1277 212.01 34.5143 212.01 52.922V88.5546H192.935V55.1154C192.935 47.0943 190.161 41.5893 183.13 41.5893C181.04 41.5718 178.997 42.2096 177.288 43.413C175.579 44.6164 174.291 46.325 173.603 48.2986C173.148 49.6334 172.937 51.0393 172.979 52.4489V88.5546H153.991V0Z" fill="#5454FF"/>
<path d="M220.827 48.0191C220.827 39.998 220.591 33.2242 220.333 27.504H236.826L237.708 36.1057H237.945C240.237 32.885 243.3 30.2902 246.854 28.5585C250.407 26.8267 254.338 26.0132 258.288 26.1923C271.642 26.1923 283.641 37.8046 283.641 57.2874C283.641 79.5443 269.47 89.9739 255.879 89.9739C248.589 89.9739 242.761 87.0493 240.052 83.028H239.815V113.177H220.827V48.0191ZM239.815 62.4054C239.795 63.7418 239.925 65.0763 240.202 66.3837C240.765 68.9112 242.165 71.1744 244.175 72.8061C246.185 74.4378 248.688 75.3422 251.277 75.3725C259.47 75.3725 264.373 68.4696 264.373 58.1691C264.373 48.4707 260.072 40.9657 251.471 40.9657C248.774 41.0418 246.183 42.0326 244.124 43.7754C242.064 45.5182 240.659 47.9095 240.138 50.5566C239.852 51.6665 239.708 52.8081 239.708 53.9543L239.815 62.4054Z" fill="white"/>
<path d="M349.767 57.4164C349.767 79.7163 333.961 89.9093 317.511 89.9093C299.748 89.9093 285.985 78.168 285.985 58.4701C285.985 38.7722 298.995 26.2137 318.607 26.2137C337.359 26.1277 349.767 38.9872 349.767 57.4164ZM305.64 58.04C305.64 68.4481 309.941 76.3616 318.113 76.3616C325.532 76.3616 330.198 68.9427 330.198 57.9325C330.198 48.9437 326.736 39.6754 318.134 39.6754C309.081 39.6754 305.64 48.9867 305.64 58.04Z" fill="white"/>
<path d="M355.207 72.0179C360.208 74.7823 365.778 76.3571 371.486 76.6198C377.206 76.6198 379.658 74.6845 379.658 71.5663C379.658 68.4482 377.722 66.8784 370.69 64.5129C358.003 60.3411 353.229 53.4382 353.293 46.2558C353.293 34.794 362.97 26.1923 378.131 26.1923C384.056 26.102 389.929 27.3133 395.334 29.7405L392.023 42.8151C387.925 40.7004 383.407 39.5251 378.798 39.3744C374.174 39.3744 371.529 41.2238 371.529 44.2989C371.529 47.374 373.938 48.7503 381.421 51.3308C392.99 55.1156 397.829 61.1583 397.829 70.1686C397.829 81.5658 388.948 89.974 371.443 89.974C364.61 90.108 357.84 88.6348 351.681 85.6731L355.207 72.0179Z" fill="white"/>
<path d="M424.345 10.0852V27.5037H438V41.5029H424.345V63.7168C424.345 71.0928 426.172 74.469 431.828 74.469C433.728 74.4925 435.625 74.305 437.484 73.9099L437.634 88.3392C433.643 89.5178 429.494 90.0692 425.334 89.9736C422.718 90.0751 420.107 89.6581 417.653 88.7465C415.199 87.8349 412.949 86.4468 411.033 84.662C407.507 81.0493 405.786 75.2431 405.786 66.5769V41.5029H397.679V27.5037H405.786V14.3861L424.345 10.0852Z" fill="white"/>
</svg>
