<svg width="40" height="52" viewBox="0 0 40 52" fill="none" xmlns="http://www.w3.org/2000/svg">
<rect x="9" y="17" width="23" height="23" rx="11.5" fill="#BDF3FF"/>
<path d="M21.1484 22.8552C21.1484 22.441 20.8127 22.1052 20.3984 22.1052C19.9842 22.1052 19.6484 22.441 19.6484 22.8552H21.1484ZM21.1484 25.3552V22.8552H19.6484V25.3552H21.1484Z" fill="black"/>
<path d="M25.9035 29.853C25.5035 31.453 23.9032 31.3552 23.4035 30.353C22.2819 27.245 20.9032 27.3552 19.4032 27.8529C16.9032 28.8552 17.4032 31.3552 18.9032 31.8529C25.9032 33.3552 26.4032 36.3552 26.4032 37.8529C25.9032 42.3552 23.737 42.8552 20.9037 42.8552C18.1037 42.8552 15.3984 41.3552 14.4037 39.3552C13.6037 36.1552 16.3984 35.8552 16.9035 37.3529C18.4032 42.3552 22.9037 40.8552 23.4035 39.3529C24.4037 36.3552 21.2368 35.5196 19.4035 35.3529C15.4037 34.8552 14.0701 30.6863 14.4035 29.353C15.6035 24.553 21.1074 25.3184 21.4035 25.353C25.4032 25.8529 26.2368 28.6863 25.9035 29.853Z" stroke="black" stroke-width="0.65" stroke-linejoin="round"/>
<path d="M1.3987 43.8552C-1.4013 33.4552 11.232 21.1886 17.8987 16.3552L15.8984 20.8552L19.3984 16.3552H20.8984L23.3984 20.8552L22.3984 16.3552C39.5984 27.9552 39.9632 37.9666 38.8984 44.3552C37.8984 50.3552 27.8984 51.0219 22.8984 50.8552C8.89844 51.2552 6.5 50.5 3.89844 47.8552C2.70836 46.6454 1.57365 44.505 1.3987 43.8552Z" stroke="black" stroke-width="0.65" stroke-linejoin="round"/>
<path d="M16.3989 9.3554L14.8989 2.8554C18.0993 -0.344599 23.8984 1.35524 27.3984 2.3554L25.3984 7.8554L27.3984 5.3554C28.3984 4.35536 30.3984 7.35522 29.8984 8.3554L24.3984 15.3554L22.3984 14.8554L23.8984 11.3554L21.3984 14.8554C18.1984 14.0554 16.7318 14.8554 16.3984 15.3554L10.8989 8.3554C10.4989 7.1554 12.7322 5.52207 13.8989 4.8554L16.3989 9.3554Z" stroke="black" stroke-width="0.65" stroke-linejoin="round"/>
<path d="M19.6484 45.8552C19.6484 46.2694 19.9842 46.6052 20.3984 46.6052C20.8127 46.6052 21.1484 46.2694 21.1484 45.8552H19.6484ZM19.6484 42.8552V45.8552H21.1484V42.8552H19.6484Z" fill="black"/>
<path d="M20.3984 27.8752V32.2287V27.6287" stroke="black" stroke-width="1.5"/>
<path d="M20.3984 35.3552V40.7552" stroke="black" stroke-width="1.5"/>
</svg>
