<svg width="34" height="47" viewBox="0 0 34 47" fill="none" xmlns="http://www.w3.org/2000/svg">
<rect x="4.38672" y="19" width="25.9657" height="23" rx="11.5" fill="#BDF3FF"/>
<path d="M13.3428 24.9439V24.3365M13.3428 23.7291H9.2285C5.11434 23.3241 3.65136 21.2185 3.28564 17.6551C2.8285 13.2009 4.19993 7.12699 13.3428 5.9122C17.4571 5.37229 26.4172 5.58826 29.3429 10.7713C30.7143 13.4709 32.2686 19.5987 27.5143 22.5142C26.4477 23.0541 23.5829 24.053 20.6572 23.729M13.3428 23.7291L20.6572 23.729M13.3428 23.7291V24.3365M20.6572 23.729V24.3364M20.6572 24.9439V24.3364M13.3428 24.3365L20.6572 24.3364" stroke="black" stroke-width="1.5" stroke-linejoin="round"/>
<path d="M9.68555 28.9929C9.68555 27.5082 10.1427 25.3485 13.3427 24.9436H21.5713C22.9427 24.9436 24.3141 26.6443 24.3141 28.588" stroke="black" stroke-linejoin="round"/>
<path d="M31.1714 28.9929H3.28571C1.45714 28.9929 1 30.3427 1 31.0176L1.91429 43.1654C1.91429 44.7852 2.37143 45.9999 4.2 45.9999H29.3429C31.5371 45.676 32.0857 43.9753 32.0857 43.1654L33 32.2324C33 29.8028 32.0857 28.9929 31.1714 28.9929Z" stroke="black" stroke-linejoin="round"/>
<path d="M20.6141 37.4965C20.6141 38.9542 19.2593 40.2359 17.4569 40.2359C15.6546 40.2359 14.2998 38.9542 14.2998 37.4965C14.2998 36.0388 15.6546 34.7571 17.4569 34.7571C19.2593 34.7571 20.6141 36.0388 20.6141 37.4965Z" stroke="black"/>
<path d="M9.96225 17C7.30807 17 6.64453 15.5294 6.64453 14.6471C6.64453 13.4706 8.30339 12.2941 9.54753 12.2941L23.6478 12C26.5508 12 26.9655 14.3529 26.9655 14.3529C26.9655 15.5294 26.1361 17 24.0625 17H9.96225Z" fill="black" stroke="black" stroke-width="1.5" stroke-linejoin="round"/>
<path d="M14.3527 15.0246C14.3527 15.9771 13.4706 16.7993 12.317 16.7993C11.1633 16.7993 10.2812 15.9771 10.2812 15.0246C10.2812 14.0722 11.1633 13.25 12.317 13.25C13.4706 13.25 14.3527 14.0722 14.3527 15.0246Z" stroke="#BDF3FF" stroke-width="0.5"/>
<ellipse cx="21.8907" cy="14.8205" rx="0.457143" ry="0.404929" fill="white"/>
<ellipse cx="11.8439" cy="14.8048" rx="0.457143" ry="0.404929" fill="white"/>
<path d="M23.3849 15.0246C23.3849 15.9771 22.5028 16.7993 21.3492 16.7993C20.1955 16.7993 19.3135 15.9771 19.3135 15.0246C19.3135 14.0722 20.1955 13.25 21.3492 13.25C22.5028 13.25 23.3849 14.0722 23.3849 15.0246Z" stroke="#BDF3FF" stroke-width="0.5"/>
<path d="M13.7998 20.4895C14.8665 21.4343 17.6398 22.7571 20.1998 20.4895" stroke="black" stroke-width="1.25" stroke-linecap="round" stroke-linejoin="round"/>
<path d="M17 5.10214V3.48242" stroke="black" stroke-width="1.25" stroke-linejoin="round"/>
<path d="M18.7853 2.02465C18.7853 2.81141 18.0445 3.54929 16.9996 3.54929C15.9546 3.54929 15.2139 2.81141 15.2139 2.02465C15.2139 1.23788 15.9546 0.5 16.9996 0.5C18.0445 0.5 18.7853 1.23788 18.7853 2.02465Z" stroke="black"/>
</svg>
